<svg viewBox="-8 -15 207 207" xmlns="http://www.w3.org/2000/svg">
  <style>
    path { fill: #111111; }                                 /* tema claro: PB escuro */
    @media (prefers-color-scheme: dark) { path { fill: #f2f2f0; } }  /* tema escuro: PB claro */
  </style>
  <path d="M46.3783 1.20967C24.3783 6.00967 6.27834 23.7097 1.37834 45.1097C-0.0216604 50.8097 -0.12166 59.1097 0.0783396 100.01L0.37834 148.11L3.57834 154.71C9.17834 166.01 21.3783 175.11 32.4783 176.41L36.8783 176.91V117.51C36.8783 61.8097 37.0783 57.8097 38.7783 54.0097C45.6783 38.8097 66.6783 34.8097 78.3783 46.4097C84.5783 52.6097 85.2783 54.8097 85.6783 68.3097L86.0783 80.6097H73.9783H61.8783V128.61V176.71L109.678 176.41L157.378 176.11L164.178 172.91C186.778 162.21 197.178 133.51 186.678 111.31C180.578 98.7097 169.878 90.5097 157.378 88.8097L151.378 88.0097L156.478 86.3097C166.478 82.9097 173.878 76.1097 178.678 65.9097C181.178 60.5097 181.378 59.2097 181.378 47.1097C181.378 35.8097 181.078 33.3097 178.978 28.3097C174.378 16.7097 163.178 6.10967 151.978 2.60967C146.278 0.809665 142.878 0.609665 118.478 0.709665H91.3783L98.1783 2.70967C113.378 7.00967 127.678 15.6097 135.078 24.9097C137.378 27.8097 140.778 33.5097 142.778 37.6097C146.278 44.9097 146.378 45.4097 146.378 56.6097C146.278 70.2097 144.278 76.6097 137.378 85.0097L133.078 90.3097L138.078 94.6097C144.778 100.41 147.178 105.91 146.678 114.11C146.178 122.41 142.878 127.41 135.778 131.01C130.578 133.61 130.178 133.61 109.378 133.61C88.7783 133.61 73.0783 132.41 69.9783 130.61C68.6783 129.81 68.6783 129.71 70.3783 129.61C73.4783 129.61 85.6783 123.41 91.4783 119.01C113.778 102.01 125.978 66.5097 117.978 41.8097C110.178 17.7097 88.5783 1.40967 62.5783 0.109665C56.3783 -0.190335 51.0783 0.109665 46.3783 1.20967Z"/>
</svg>
